<mxfile host="app.diagrams.net" modified="2023-12-13T04:04:10.205Z" agent="Mozilla/5.0 (Windows NT 10.0; Win64; x64) AppleWebKit/537.36 (KHTML, like Gecko) Chrome/120.0.0.0 Safari/537.36" etag="u_y5MeGFTE7_6PpFGRJg" version="22.1.8" type="github">
  <diagram name="Page-1" id="zs_Uiz_Imz1jHabF4n7F">
    <mxGraphModel dx="756" dy="411" grid="1" gridSize="10" guides="1" tooltips="1" connect="1" arrows="1" fold="1" page="1" pageScale="1" pageWidth="850" pageHeight="1100" math="0" shadow="0">
      <root>
        <mxCell id="0" />
        <mxCell id="1" parent="0" />
        <mxCell id="ab0pg-oc8UuBU3JLuqYj-6" style="edgeStyle=orthogonalEdgeStyle;rounded=0;orthogonalLoop=1;jettySize=auto;html=1;exitX=1;exitY=0.25;exitDx=0;exitDy=0;entryX=0;entryY=0.25;entryDx=0;entryDy=0;" edge="1" parent="1" source="ab0pg-oc8UuBU3JLuqYj-1" target="ab0pg-oc8UuBU3JLuqYj-4">
          <mxGeometry relative="1" as="geometry" />
        </mxCell>
        <mxCell id="ab0pg-oc8UuBU3JLuqYj-14" style="edgeStyle=orthogonalEdgeStyle;rounded=0;orthogonalLoop=1;jettySize=auto;html=1;exitX=0;exitY=0.75;exitDx=0;exitDy=0;entryX=1.014;entryY=0.679;entryDx=0;entryDy=0;entryPerimeter=0;" edge="1" parent="1" source="ab0pg-oc8UuBU3JLuqYj-1" target="ab0pg-oc8UuBU3JLuqYj-5">
          <mxGeometry relative="1" as="geometry">
            <mxPoint x="570" y="190" as="targetPoint" />
            <Array as="points">
              <mxPoint x="80" y="195" />
              <mxPoint x="80" y="240" />
              <mxPoint x="580" y="240" />
              <mxPoint x="580" y="191" />
            </Array>
          </mxGeometry>
        </mxCell>
        <mxCell id="ab0pg-oc8UuBU3JLuqYj-1" value="Elem 1" style="shape=process;whiteSpace=wrap;html=1;backgroundOutline=1;" vertex="1" parent="1">
          <mxGeometry x="100" y="150" width="120" height="60" as="geometry" />
        </mxCell>
        <mxCell id="ab0pg-oc8UuBU3JLuqYj-7" style="edgeStyle=orthogonalEdgeStyle;rounded=0;orthogonalLoop=1;jettySize=auto;html=1;exitX=1;exitY=0.25;exitDx=0;exitDy=0;" edge="1" parent="1" source="ab0pg-oc8UuBU3JLuqYj-4">
          <mxGeometry relative="1" as="geometry">
            <mxPoint x="390" y="90" as="targetPoint" />
            <Array as="points">
              <mxPoint x="390" y="165" />
            </Array>
          </mxGeometry>
        </mxCell>
        <mxCell id="ab0pg-oc8UuBU3JLuqYj-13" style="edgeStyle=orthogonalEdgeStyle;rounded=0;orthogonalLoop=1;jettySize=auto;html=1;exitX=0;exitY=0.75;exitDx=0;exitDy=0;entryX=1;entryY=0.75;entryDx=0;entryDy=0;" edge="1" parent="1" source="ab0pg-oc8UuBU3JLuqYj-4" target="ab0pg-oc8UuBU3JLuqYj-1">
          <mxGeometry relative="1" as="geometry" />
        </mxCell>
        <mxCell id="ab0pg-oc8UuBU3JLuqYj-4" value="Elem 2" style="shape=process;whiteSpace=wrap;html=1;backgroundOutline=1;" vertex="1" parent="1">
          <mxGeometry x="260" y="150" width="120" height="60" as="geometry" />
        </mxCell>
        <mxCell id="ab0pg-oc8UuBU3JLuqYj-10" style="edgeStyle=orthogonalEdgeStyle;rounded=0;orthogonalLoop=1;jettySize=auto;html=1;exitX=1;exitY=0.25;exitDx=0;exitDy=0;entryX=0;entryY=0.25;entryDx=0;entryDy=0;" edge="1" parent="1" source="ab0pg-oc8UuBU3JLuqYj-5" target="ab0pg-oc8UuBU3JLuqYj-1">
          <mxGeometry relative="1" as="geometry">
            <mxPoint x="80" y="160" as="targetPoint" />
            <Array as="points">
              <mxPoint x="600" y="165" />
              <mxPoint x="600" y="260" />
              <mxPoint x="50" y="260" />
              <mxPoint x="50" y="165" />
            </Array>
          </mxGeometry>
        </mxCell>
        <mxCell id="ab0pg-oc8UuBU3JLuqYj-19" style="edgeStyle=orthogonalEdgeStyle;rounded=0;orthogonalLoop=1;jettySize=auto;html=1;exitX=0;exitY=0.75;exitDx=0;exitDy=0;entryX=1;entryY=0.75;entryDx=0;entryDy=0;" edge="1" parent="1" source="ab0pg-oc8UuBU3JLuqYj-5" target="ab0pg-oc8UuBU3JLuqYj-15">
          <mxGeometry relative="1" as="geometry">
            <mxPoint x="510" y="100" as="targetPoint" />
            <Array as="points">
              <mxPoint x="410" y="195" />
              <mxPoint x="410" y="100" />
              <mxPoint x="510" y="100" />
              <mxPoint x="510" y="75" />
            </Array>
          </mxGeometry>
        </mxCell>
        <mxCell id="ab0pg-oc8UuBU3JLuqYj-5" value="Elem 3" style="shape=process;whiteSpace=wrap;html=1;backgroundOutline=1;" vertex="1" parent="1">
          <mxGeometry x="430" y="150" width="120" height="60" as="geometry" />
        </mxCell>
        <mxCell id="ab0pg-oc8UuBU3JLuqYj-15" value="Nuevo Nodo&lt;br&gt;" style="shape=process;whiteSpace=wrap;html=1;backgroundOutline=1;" vertex="1" parent="1">
          <mxGeometry x="380" y="30" width="120" height="60" as="geometry" />
        </mxCell>
        <mxCell id="ab0pg-oc8UuBU3JLuqYj-16" style="edgeStyle=orthogonalEdgeStyle;rounded=0;orthogonalLoop=1;jettySize=auto;html=1;exitX=1;exitY=0.25;exitDx=0;exitDy=0;entryX=0.053;entryY=-0.026;entryDx=0;entryDy=0;entryPerimeter=0;" edge="1" parent="1" source="ab0pg-oc8UuBU3JLuqYj-15" target="ab0pg-oc8UuBU3JLuqYj-5">
          <mxGeometry relative="1" as="geometry" />
        </mxCell>
        <mxCell id="ab0pg-oc8UuBU3JLuqYj-18" style="edgeStyle=orthogonalEdgeStyle;rounded=0;orthogonalLoop=1;jettySize=auto;html=1;exitX=0;exitY=0.75;exitDx=0;exitDy=0;entryX=0.935;entryY=0.004;entryDx=0;entryDy=0;entryPerimeter=0;" edge="1" parent="1" source="ab0pg-oc8UuBU3JLuqYj-15" target="ab0pg-oc8UuBU3JLuqYj-4">
          <mxGeometry relative="1" as="geometry">
            <Array as="points">
              <mxPoint x="372" y="75" />
            </Array>
          </mxGeometry>
        </mxCell>
      </root>
    </mxGraphModel>
  </diagram>
</mxfile>
